<mxfile host="app.diagrams.net" modified="2022-10-07T04:49:11.023Z" agent="5.0 (X11; Linux x86_64) AppleWebKit/537.36 (KHTML, like Gecko) Chrome/106.0.0.0 Safari/537.36" etag="W2-JBOmCnmdbcFP6-KTP" version="20.4.0" type="github">
  <diagram name="Page-1" id="5987fedf-629e-85c4-6858-42fee31821dd">
    <mxGraphModel dx="2273" dy="1342" grid="1" gridSize="10" guides="1" tooltips="1" connect="1" arrows="1" fold="1" page="1" pageScale="1.5" pageWidth="1169" pageHeight="826" background="none" math="0" shadow="0">
      <root>
        <mxCell id="0" style=";html=1;" />
        <mxCell id="1" style=";html=1;" parent="0" />
        <mxCell id="Z2SPtLYI3VGKBh6fxwIg-11" style="edgeStyle=orthogonalEdgeStyle;shape=flexArrow;rounded=0;orthogonalLoop=1;jettySize=auto;html=1;exitX=0.5;exitY=1;exitDx=0;exitDy=0;entryX=0.5;entryY=0;entryDx=0;entryDy=0;fontSize=24;" edge="1" parent="1" source="2a5a01dd2e413fbf-1" target="2a5a01dd2e413fbf-8">
          <mxGeometry relative="1" as="geometry" />
        </mxCell>
        <mxCell id="2a5a01dd2e413fbf-1" value="Router" style="ellipse;whiteSpace=wrap;html=1;rounded=0;shadow=0;strokeWidth=1;fillColor=#dae8fc;fontSize=24;align=center;strokeColor=#6c8ebf;opacity=50;" parent="1" vertex="1">
          <mxGeometry x="720" y="230" width="350" height="130" as="geometry" />
        </mxCell>
        <mxCell id="Z2SPtLYI3VGKBh6fxwIg-17" style="edgeStyle=orthogonalEdgeStyle;shape=flexArrow;rounded=0;orthogonalLoop=1;jettySize=auto;html=1;exitX=0.5;exitY=1;exitDx=0;exitDy=0;entryX=0.5;entryY=0;entryDx=0;entryDy=0;entryPerimeter=0;fontSize=24;" edge="1" parent="1" source="2a5a01dd2e413fbf-8" target="Z2SPtLYI3VGKBh6fxwIg-13">
          <mxGeometry relative="1" as="geometry" />
        </mxCell>
        <mxCell id="2a5a01dd2e413fbf-8" value="Controller" style="ellipse;whiteSpace=wrap;html=1;rounded=0;shadow=0;strokeWidth=1;fillColor=#ffe6cc;fontSize=24;align=center;strokeColor=#d79b00;opacity=50;" parent="1" vertex="1">
          <mxGeometry x="770" y="559" width="250" height="201" as="geometry" />
        </mxCell>
        <mxCell id="2a5a01dd2e413fbf-35" style="edgeStyle=none;curved=1;html=1;endArrow=none;endFill=0;fontSize=24;strokeWidth=4;strokeColor=#00CC00;align=center;" parent="1" target="2a5a01dd2e413fbf-25" edge="1">
          <mxGeometry relative="1" as="geometry">
            <Array as="points">
              <mxPoint x="872" y="529" />
            </Array>
            <mxPoint x="560.6486486486488" y="889" as="sourcePoint" />
          </mxGeometry>
        </mxCell>
        <mxCell id="Z2SPtLYI3VGKBh6fxwIg-3" value="Comment Router" style="ellipse;whiteSpace=wrap;html=1;rounded=0;shadow=0;strokeWidth=1;fillColor=#dae8fc;fontSize=24;align=center;strokeColor=#6c8ebf;opacity=50;" vertex="1" parent="1">
          <mxGeometry x="1252" y="230" width="350" height="130" as="geometry" />
        </mxCell>
        <mxCell id="Z2SPtLYI3VGKBh6fxwIg-5" style="edgeStyle=orthogonalEdgeStyle;shape=flexArrow;rounded=0;orthogonalLoop=1;jettySize=auto;html=1;fontSize=24;" edge="1" parent="1" source="Z2SPtLYI3VGKBh6fxwIg-4" target="2a5a01dd2e413fbf-1">
          <mxGeometry relative="1" as="geometry" />
        </mxCell>
        <mxCell id="Z2SPtLYI3VGKBh6fxwIg-4" value="&lt;font style=&quot;font-size: 24px;&quot;&gt;Request&lt;/font&gt;" style="shape=or;whiteSpace=wrap;html=1;" vertex="1" parent="1">
          <mxGeometry y="215" width="270" height="160" as="geometry" />
        </mxCell>
        <mxCell id="Z2SPtLYI3VGKBh6fxwIg-8" value="" style="endArrow=none;dashed=1;html=1;dashPattern=1 3;strokeWidth=2;rounded=0;fontSize=24;shape=flexArrow;exitX=1;exitY=0.5;exitDx=0;exitDy=0;" edge="1" parent="1" source="2a5a01dd2e413fbf-1">
          <mxGeometry width="50" height="50" relative="1" as="geometry">
            <mxPoint x="1070" y="330" as="sourcePoint" />
            <mxPoint x="1250" y="295" as="targetPoint" />
          </mxGeometry>
        </mxCell>
        <mxCell id="Z2SPtLYI3VGKBh6fxwIg-12" value="" style="endArrow=none;dashed=1;html=1;dashPattern=1 3;strokeWidth=2;rounded=0;fontSize=24;shape=flexArrow;exitX=1;exitY=0;exitDx=0;exitDy=0;entryX=0.5;entryY=1;entryDx=0;entryDy=0;" edge="1" parent="1" source="2a5a01dd2e413fbf-8" target="Z2SPtLYI3VGKBh6fxwIg-3">
          <mxGeometry width="50" height="50" relative="1" as="geometry">
            <mxPoint x="1410" y="410" as="sourcePoint" />
            <mxPoint x="1460" y="360" as="targetPoint" />
          </mxGeometry>
        </mxCell>
        <mxCell id="Z2SPtLYI3VGKBh6fxwIg-19" style="edgeStyle=orthogonalEdgeStyle;shape=flexArrow;rounded=0;orthogonalLoop=1;jettySize=auto;html=1;entryX=0.902;entryY=0.537;entryDx=0;entryDy=0;entryPerimeter=0;fontSize=24;" edge="1" parent="1" source="Z2SPtLYI3VGKBh6fxwIg-13" target="Z2SPtLYI3VGKBh6fxwIg-14">
          <mxGeometry relative="1" as="geometry" />
        </mxCell>
        <mxCell id="Z2SPtLYI3VGKBh6fxwIg-21" style="edgeStyle=orthogonalEdgeStyle;shape=flexArrow;rounded=0;orthogonalLoop=1;jettySize=auto;html=1;exitX=0;exitY=1;exitDx=0;exitDy=-15;exitPerimeter=0;fontSize=24;entryX=0.927;entryY=0.517;entryDx=0;entryDy=0;entryPerimeter=0;" edge="1" parent="1" source="Z2SPtLYI3VGKBh6fxwIg-13" target="Z2SPtLYI3VGKBh6fxwIg-15">
          <mxGeometry relative="1" as="geometry">
            <mxPoint x="570" y="1110" as="targetPoint" />
            <Array as="points">
              <mxPoint x="690" y="1046" />
              <mxPoint x="690" y="1120" />
              <mxPoint x="585" y="1120" />
            </Array>
          </mxGeometry>
        </mxCell>
        <mxCell id="Z2SPtLYI3VGKBh6fxwIg-13" value="Model" style="shape=cylinder3;whiteSpace=wrap;html=1;boundedLbl=1;backgroundOutline=1;size=15;fontSize=24;fillColor=#D4E2F5;" vertex="1" parent="1">
          <mxGeometry x="778.5" y="950" width="233" height="111" as="geometry" />
        </mxCell>
        <mxCell id="Z2SPtLYI3VGKBh6fxwIg-14" value="Helper&lt;br&gt;Models" style="shape=dataStorage;whiteSpace=wrap;html=1;fixedSize=1;fontSize=24;fillColor=#D4E2F5;" vertex="1" parent="1">
          <mxGeometry x="400" y="890" width="200" height="80" as="geometry" />
        </mxCell>
        <mxCell id="Z2SPtLYI3VGKBh6fxwIg-15" value="Helper&lt;br&gt;bk_model" style="shape=dataStorage;whiteSpace=wrap;html=1;fixedSize=1;fontSize=24;fillColor=#D4E2F5;size=19.999999999999545;" vertex="1" parent="1">
          <mxGeometry x="400" y="1080" width="200" height="80" as="geometry" />
        </mxCell>
        <mxCell id="Z2SPtLYI3VGKBh6fxwIg-22" value="" style="endArrow=classic;html=1;rounded=0;fontSize=24;shape=flexArrow;exitX=0;exitY=0.5;exitDx=0;exitDy=0;" edge="1" parent="1" source="2a5a01dd2e413fbf-8" target="Z2SPtLYI3VGKBh6fxwIg-4">
          <mxGeometry relative="1" as="geometry">
            <mxPoint x="550" y="790" as="sourcePoint" />
            <mxPoint x="650" y="790" as="targetPoint" />
            <Array as="points">
              <mxPoint x="135" y="659" />
            </Array>
          </mxGeometry>
        </mxCell>
        <mxCell id="Z2SPtLYI3VGKBh6fxwIg-23" value="" style="shape=message;html=1;outlineConnect=0;fontSize=24;fillColor=#D4E2F5;" vertex="1" parent="Z2SPtLYI3VGKBh6fxwIg-22">
          <mxGeometry width="20" height="14" relative="1" as="geometry">
            <mxPoint x="-10" y="-7" as="offset" />
          </mxGeometry>
        </mxCell>
        <mxCell id="Z2SPtLYI3VGKBh6fxwIg-24" value="Response" style="text;html=1;strokeColor=none;fillColor=none;align=center;verticalAlign=middle;whiteSpace=wrap;rounded=0;fontSize=24;" vertex="1" parent="1">
          <mxGeometry x="280" y="600" width="60" height="30" as="geometry" />
        </mxCell>
      </root>
    </mxGraphModel>
  </diagram>
</mxfile>
